<svg xmlns="http://www.w3.org/2000/svg" width="58" height="58" viewBox="0 0 58 58"><g fill="none" stroke-width="2" transform="translate(2 2)"><circle cx="27" cy="27" r="28" fill="#FFF" stroke="#008CFF" stroke-linecap="square"></circle><circle cx="27" cy="8" r="4" fill="#DCEFFF" stroke="#008CFF"></circle><circle cx="27" cy="46" r="4" fill="#DCEFFF" stroke="#008CFF"></circle><circle cx="46" cy="27" r="4" fill="#DCEFFF" stroke="#008CFF" transform="rotate(90 46 27)"></circle><circle cx="8" cy="27" r="4" fill="#DCEFFF" stroke="#008CFF" transform="rotate(90 8 27)"></circle><polyline stroke="#008CFF" stroke-linecap="round" stroke-linejoin="round" points="2 21 14 33 26 21" transform="matrix(0 1 1 0 -13 13)"></polyline><polyline stroke="#008CFF" stroke-linecap="round" stroke-linejoin="round" points="28 21 40 33 52 21" transform="rotate(90 40 27)"></polyline><polyline stroke="#008CFF" stroke-linecap="round" stroke-linejoin="round" points="15 8 27 20 39 8" transform="matrix(-1 0 0 1 54 0)"></polyline><polyline stroke="#008CFF" stroke-linecap="round" stroke-linejoin="round" points="15 34 27 46 39 34" transform="rotate(-180 27 40)"></polyline><path stroke="#DCEFFF" stroke-linecap="round" stroke-linejoin="round" d="M10.5,10.5 L43.7190963,43.7190963"></path><path stroke="#DCEFFF" stroke-linecap="round" stroke-linejoin="round" d="M10.5,10.5 L43.7190963,43.7190963" transform="matrix(-1 0 0 1 54 0)"></path></g></svg>
