<svg xmlns="http://www.w3.org/2000/svg" xmlns:xlink="http://www.w3.org/1999/xlink" width="58" height="61" viewBox="0 0 58 61"><defs><circle id="icon-principle-dont-settle-a" cx="27" cy="27" r="27"></circle></defs><g fill="none" fill-rule="evenodd" transform="translate(2 1)"><rect width="9" height="4" x="5" y="31" fill="#FFF" stroke="#008CFF" stroke-linecap="round" stroke-linejoin="round" stroke-width="2" rx="2"></rect><rect width="9" height="4" x="8" y="27" fill="#FFF" stroke="#008CFF" stroke-linecap="round" stroke-linejoin="round" stroke-width="2" rx="2"></rect><g transform="translate(0 4)"><mask id="icon-principle-dont-settle-b" fill="#fff"><use xlink:href="#icon-principle-dont-settle-a"></use></mask><circle cx="27" cy="27" r="28" stroke="#008CFF" stroke-width="2"></circle><path fill="#DCEFFF" stroke="#008CFF" stroke-linecap="round" stroke-linejoin="round" stroke-width="2" d="M15.2291667,66 L-12,66 L17,18 L20.4895833,23.7758621 L27,13 L37.125,29.7586207 L40,25 L69,73 L11,73 L15.2291667,66 Z" mask="url(#icon-principle-dont-settle-b)"></path><path stroke="#008CFF" stroke-linejoin="round" stroke-width="2" d="M23,20 L43,50" mask="url(#icon-principle-dont-settle-b)"></path><path fill="#FFF" stroke="#008CFF" stroke-linecap="round" stroke-linejoin="round" stroke-width="2" d="M46,39 L50,39 C51.1045695,39 52,39.8954305 52,41 C52,42.1045695 51.1045695,43 50,43 L28,43 C26.8954305,43 26,42.1045695 26,41 C26,39.8954305 26.8954305,39 28,39 L24,39 C22.8954305,39 22,38.1045695 22,37 C22,35.8954305 22.8954305,35 24,35 L46,35 C47.1045695,35 48,35.8954305 48,37 C48,38.1045695 47.1045695,39 46,39 Z" mask="url(#icon-principle-dont-settle-b)"></path></g><polygon fill="#FFF" stroke="#008CFF" stroke-linecap="round" stroke-linejoin="round" stroke-width="2" points="34 12 48 12 46 7.5 46.726 5.868 48 3 34 3"></polygon><path stroke="#008CFF" stroke-linecap="round" stroke-linejoin="round" stroke-width="2" d="M27,3 L27,17"></path><polygon fill="#FFF" stroke="#008CFF" stroke-linecap="round" stroke-linejoin="round" stroke-width="2" points="33 8 41 8 41 3.2 41 3.004 41 0 27 0 27 8"></polygon><rect width="6" height="4" x="12" y="39" fill="#FFF" stroke="#008CFF" stroke-linecap="round" stroke-linejoin="round" stroke-width="2" rx="2"></rect></g></svg>
