<svg xmlns="http://www.w3.org/2000/svg" xmlns:xlink="http://www.w3.org/1999/xlink" width="69" height="59" viewBox="0 0 69 59"><defs><path id="icon-principle-draw-the-owl-a" d="M9,6.5 C9,7.88166667 7.88166667,9 6.5,9 C5.12,9 4,7.88166667 4,6.5 C4,5.12 5.12,4 6.5,4 C7.88166667,4 9,5.12 9,6.5"></path><path id="icon-principle-draw-the-owl-c" d="M9,6.5 C9,7.88166667 7.88166667,9 6.5,9 C5.12,9 4,7.88166667 4,6.5 C4,5.12 5.12,4 6.5,4 C7.88166667,4 9,5.12 9,6.5"></path></defs><g fill="none" fill-rule="evenodd" transform="translate(0 -2)"><circle cx="28" cy="30" r="28" fill="#DCEFFF" fill-rule="nonzero"></circle><g><path fill="#FFF" d="M15.9569302,21.8764069 C15.4138603,21.2528139 16,21.006424 16,20.5663759 C16,11.1923686 9.41993548,3.28580743 0.429477472,0.828045211 C0.604956403,5.13216498 1.29513058,8.05140313 2.5,9.58575965 C6.92483767,15.2206263 8.4803863,17.7135397 11,19.4946 C12.4663621,20.5311396 16.1567149,22.1058146 15.9569302,21.8764069 Z" transform="translate(1 32)"></path><path stroke="#008CFF" stroke-linecap="round" stroke-linejoin="round" stroke-width="2" d="M15.2233945,27.2467412 C15.6123492,25.8410554 15.8621166,24.3775513 15.9569302,22.8719956 C15.9854996,22.418338 16,21.9608624 16,21.5 C16,11.6826016 9.41993548,3.40205971 0.429477472,0.828045211" transform="translate(1 32)"></path><g><path fill="#FFF" d="M15.9569302,21.8764069 C15.4138603,21.2528139 16,21.006424 16,20.5663759 C16,11.1923686 9.41993548,3.28580743 0.429477472,0.828045211 C0.604956403,5.13216498 1.29513058,8.05140313 2.5,9.58575965 C6.92483767,15.2206263 8.4803863,17.7135397 11,19.4946 C12.4663621,20.5311396 16.1567149,22.1058146 15.9569302,21.8764069 Z" transform="translate(1 32) matrix(-1 0 0 1 54 0)"></path><path stroke="#008CFF" stroke-linecap="round" stroke-linejoin="round" stroke-width="2" d="M15.2233945,27.2467412 C15.6123492,25.8410554 15.8621166,24.3775513 15.9569302,22.8719956 C15.9854996,22.418338 16,21.9608624 16,21.5 C16,11.6826016 9.41993548,3.40205971 0.429477472,0.828045211" transform="translate(1 32) matrix(-1 0 0 1 54 0)"></path></g></g><circle cx="28" cy="30" r="27" stroke="#008CFF" stroke-width="2"></circle><path fill="#008CFF" d="M8 1C8 1.55266667 7.55266667 2 7 2 6.448 2 6 1.55266667 6 1 6 .448 6.448 0 7 0 7.55266667 0 8 .448 8 1M11 6C11 6.55266667 10.5526667 7 10 7 9.448 7 9 6.55266667 9 6 9 5.448 9.448 5 10 5 10.5526667 5 11 5.448 11 6M2 1C2 1.55266667 1.55266667 2 1 2 .448 2 0 1.55266667 0 1 0 .448.448 0 1 0 1.55266667 0 2 .448 2 1M5 6C5 6.55266667 4.55266667 7 4 7 3.448 7 3 6.55266667 3 6 3 5.448 3.448 5 4 5 4.55266667 5 5 5.448 5 6M14 1C14 1.55266667 13.5526667 2 13 2 12.448 2 12 1.55266667 12 1 12 .448 12.448 0 13 0 13.5526667 0 14 .448 14 1" transform="translate(21 40)"></path><g><g transform="translate(1 8) translate(8 9)"><path fill="#FFF" stroke="#008CFF" stroke-linecap="round" stroke-linejoin="round" stroke-width="2" d="M13,6.5 C13,10.0897891 10.0897891,13 6.5,13 C2.91021088,13 0,10.0897891 0,6.5 C0,2.91021088 2.91021088,0 6.5,0 C10.0897891,0 13,2.91021088 13,6.5 Z"></path><mask id="icon-principle-draw-the-owl-b" fill="#fff"><use xlink:href="#icon-principle-draw-the-owl-a"></use></mask><use fill="#008CFF" xlink:href="#icon-principle-draw-the-owl-a"></use><circle cx="5.5" cy="5.5" r="1.5" fill="#DCEFFF" fill-rule="nonzero" mask="url(#icon-principle-draw-the-owl-b)"></circle></g><g transform="translate(1 8) translate(33 9)"><path fill="#FFF" stroke="#008CFF" stroke-linecap="round" stroke-linejoin="round" stroke-width="2" d="M13,6.5 C13,10.0897891 10.0897891,13 6.5,13 C2.91021088,13 0,10.0897891 0,6.5 C0,2.91021088 2.91021088,0 6.5,0 C10.0897891,0 13,2.91021088 13,6.5 Z"></path><mask id="icon-principle-draw-the-owl-d" fill="#fff"><use xlink:href="#icon-principle-draw-the-owl-c"></use></mask><use fill="#008CFF" xlink:href="#icon-principle-draw-the-owl-c"></use><circle cx="5.5" cy="5.5" r="1.5" fill="#DCEFFF" fill-rule="nonzero" mask="url(#icon-principle-draw-the-owl-d)"></circle></g><path stroke="#008CFF" stroke-linecap="round" stroke-linejoin="round" stroke-width="2" d="M-9.9475983e-14,0 C19,-9.69927423e-13 27,6.32739911 27,24 C27,6.33731631 34,-9.69927423e-13 53,0" transform="translate(1 8)"></path></g><g transform="translate(43 16)"><polyline fill="#FFF" points="7.061 24.597 7.061 24.597 .404 24.597 .404 17.94"></polyline><polyline stroke="#008CFF" stroke-linecap="round" stroke-linejoin="round" stroke-width="2" points="6.061 24.597 6.061 24.597 .404 24.597 .404 18.94"></polyline><polygon fill="#008CFF" points="4.404 24.597 .404 20.597 .404 24.597"></polygon><path fill="#FFF" d="M21.9336,8.7231 L23.5966,7.0601 C25.1586,5.4981 25.1586,2.9651 23.5966,1.4031 C22.0346,-0.1589 19.5016,-0.1589 17.9396,1.4031 L16.2766,3.0661 L0.4036,18.9391 C3.5276,18.9401 6.0606,21.4721 6.0606,24.5961 L21.9336,8.7231 Z"></path><path fill="#DCEFFF" d="M21.9336,8.7231 L23.5966,7.0601 C25.1586,5.4981 25.1586,2.9651 23.5966,1.4031 C22.0346,-0.1589 19.5016,-0.1589 17.9396,1.4031 L16.2766,3.0661 L21.9336,8.7231 Z"></path><path stroke="#008CFF" stroke-linecap="round" stroke-linejoin="round" stroke-width="2" d="M21.9336 8.7231L23.5966 7.0601C25.1586 5.4981 25.1586 2.9651 23.5966 1.4031 22.0346-.1589 19.5016-.1589 17.9396 1.4031L16.2766 3.0661.4036 18.9391C3.5276 18.9401 6.0606 21.4721 6.0606 24.5961L21.9336 8.7231zM7.2319 17.7681L16.2769 8.7231"></path><path fill="#DCEFFF" d="M16.2769,3.0664 L21.9339,8.7234"></path><path stroke="#008CFF" stroke-linecap="round" stroke-linejoin="round" stroke-width="2" d="M16.2769,3.0664 L21.9339,8.7234"></path></g></g></svg>
