<svg xmlns="http://www.w3.org/2000/svg" width="58" height="64" viewBox="0 0 58 64"><g fill="none" fill-rule="evenodd" transform="translate(1 2)"><path fill="#DCEFFF" fill-rule="nonzero" d="M28,5 C12.5066667,5 0,17.5066667 0,33 C0,48.4933333 12.5066667,61 28,61 C43.4933333,61 56,48.4933333 56,33 C56,17.5066667 43.4933333,5 28,5 Z"></path><g transform="translate(1 35)"><path fill="#FFF" d="M0,4.5 L2.5,3.172 C4.91462859,1.96942895 5.54989426,1.86636204 7.287,1.178 C8.777,0.589 9.773,0 12.464,0 C18.425,0 19.138,3.079 20.746,4.044 C22.065,4.835 26.646,6 29,6 C31.573,6 33,6.909 33,8.5 C33,8.95786762 32.8961726,9.34799759 32.6974404,9.67430267 L32.849,9.691 L41.882,3.615 L41.888,3.612 C45.206,1.643 46.831,2.222 47.558,3.172 C48.519,4.429 47.872,5.95 45.76,7.447 C44.407,8.407 31.534,16.971 29.716,18.023 C27.585,19.258 25.693,21.18 21.282,19.033 C19.847,18.334 14.106,15.335 12.239,14.371 C10.31,13.374 9.482,13.539 7.99,14.492 L6,16 L3.5,12.5 L1,7.5 L0,4.5 Z"></path><path stroke="#008CFF" stroke-linecap="round" stroke-linejoin="round" stroke-width="2" d="M6,16 L7.99,14.492 C9.482,13.539 10.31,13.374 12.239,14.371 C14.106,15.335 19.847,18.334 21.282,19.033 C25.693,21.18 27.585,19.258 29.716,18.023 C31.534,16.971 44.407,8.407 45.76,7.447 C47.872,5.95 48.519,4.429 47.558,3.172 C46.831,2.222 45.206,1.643 41.888,3.612 L41.882,3.615 L32.849,9.691"></path><path stroke="#008CFF" stroke-linecap="round" stroke-linejoin="round" stroke-width="2" d="M17,10 C17,10 20.503,11 23.199,11 C23.199,11 27.601,11 29,11 C31.504,11 33,10.238 33,8.5 C33,6.909 31.573,6 29,6 C26.646,6 22.065,4.835 20.746,4.044 C19.138,3.079 18.425,0 12.464,0 C9.773,0 8.777,0.589 7.287,1.178 C5.53566667,1.872 3.10666667,2.97933333 0,4.5"></path></g><path stroke="#008CFF" stroke-width="2" d="M28,5 C12.5066667,5 0,17.5066667 0,33 C0,48.4933333 12.5066667,61 28,61 C43.4933333,61 56,48.4933333 56,33 C56,17.5066667 43.4933333,5 28,5 Z"></path><path fill="#FFF" stroke="#008CFF" stroke-linecap="round" stroke-linejoin="round" stroke-width="2" d="M27,19.9090909 L16.3399252,19.9090909 L29,-4.02995963 L29,12.0909091 L39.6600748,12.0909091 L27,36.0299596 L27,19.9090909 Z"></path></g></svg>
