<svg xmlns="http://www.w3.org/2000/svg" width="58" height="58" viewBox="0 0 58 58"><g fill="none" fill-rule="evenodd" transform="rotate(90 27 29)"><path stroke="#008CFF" stroke-linecap="round" stroke-linejoin="round" stroke-width="2" d="M55,27 C55,42.463999 42.463999,55 27,55 C11.536001,55 -1,42.463999 -1,27 C-1,11.536001 11.536001,-1 27,-1 C42.463999,-1 55,11.536001 55,27 Z"></path><path fill="#008CFF" d="M1.5.5C.947916667.5.5.947916667.5 1.5.5 2.05208333.947916667 2.5 1.5 2.5 2.05208333 2.5 2.5 2.05208333 2.5 1.5 2.5.947916667 2.05208333.5 1.5.5zM1.5 4.5C.947916667 4.5.5 4.94791667.5 5.5.5 6.05208333.947916667 6.5 1.5 6.5 2.05208333 6.5 2.5 6.05208333 2.5 5.5 2.5 4.94791667 2.05208333 4.5 1.5 4.5zM1.5 8.5C.947916667 8.5.5 8.94791667.5 9.5.5 10.0520833.947916667 10.5 1.5 10.5 2.05208333 10.5 2.5 10.0520833 2.5 9.5 2.5 8.94791667 2.05208333 8.5 1.5 8.5zM1.5 12.5C.947916667 12.5.5 12.9479167.5 13.5.5 14.0520833.947916667 14.5 1.5 14.5 2.05208333 14.5 2.5 14.0520833 2.5 13.5 2.5 12.9479167 2.05208333 12.5 1.5 12.5zM1.5 16.5C.947916667 16.5.5 16.9479167.5 17.5.5 18.0520833.947916667 18.5 1.5 18.5 2.05208333 18.5 2.5 18.0520833 2.5 17.5 2.5 16.9479167 2.05208333 16.5 1.5 16.5zM1.5 24.5C.947916667 24.5.5 24.9479167.5 25.5.5 26.0520833.947916667 26.5 1.5 26.5 2.05208333 26.5 2.5 26.0520833 2.5 25.5 2.5 24.9479167 2.05208333 24.5 1.5 24.5zM1.5 28.5C.947916667 28.5.5 28.9479167.5 29.5.5 30.0520833.947916667 30.5 1.5 30.5 2.05208333 30.5 2.5 30.0520833 2.5 29.5 2.5 28.9479167 2.05208333 28.5 1.5 28.5zM1.5 32.5C.947916667 32.5.5 32.9479167.5 33.5.5 34.0520833.947916667 34.5 1.5 34.5 2.05208333 34.5 2.5 34.0520833 2.5 33.5 2.5 32.9479167 2.05208333 32.5 1.5 32.5zM1.5 40.5C.947916667 40.5.5 40.9479167.5 41.5.5 42.0520833.947916667 42.5 1.5 42.5 2.05208333 42.5 2.5 42.0520833 2.5 41.5 2.5 40.9479167 2.05208333 40.5 1.5 40.5zM1.5 44.5C.947916667 44.5.5 44.9479167.5 45.5.5 46.0520833.947916667 46.5 1.5 46.5 2.05208333 46.5 2.5 46.0520833 2.5 45.5 2.5 44.9479167 2.05208333 44.5 1.5 44.5zM1.5 48.5C.947916667 48.5.5 48.9479167.5 49.5.5 50.0520833.947916667 50.5 1.5 50.5 2.05208333 50.5 2.5 50.0520833 2.5 49.5 2.5 48.9479167 2.05208333 48.5 1.5 48.5z" transform="translate(26 1)"></path><g transform="rotate(-90 28 24.5)"><path fill="#DCEFFF" stroke="#008CFF" stroke-linecap="round" stroke-width="2" d="M17.5326447,12.1716712 L23.6465847,18.3780385 L18.1487696,23.9401395 L11.8988874,17.6201112 C11.015831,17.9067835 10.1136072,18.0557538 9.19788669,18.0557538 C4.23291327,18.0557538 0.241693038,13.9076262 0.241693038,8.78677721 C0.241693038,3.66592825 4.23291327,-0.482199367 9.19788669,-0.482199367 C14.1628601,-0.482199367 18.1540803,3.66592825 18.1540803,8.78677721 C18.1540803,9.95643143 17.9405631,11.097778 17.5326447,12.1716712 Z"></path><path fill="#FFF" stroke="#008CFF" stroke-linecap="round" stroke-width="2" d="M9.24169304,5.01780063 C11.1806966,5.01780063 12.741693,6.57879724 12.741693,8.51780063 C12.741693,10.4568044 11.1806968,12.0178006 9.24169304,12.0178006 C7.30268965,12.0178006 5.74169304,10.4568042 5.74169304,8.51780063 C5.74169304,6.57879738 7.30268979,5.01780063 9.24169304,5.01780063 Z"></path><path fill="#DCEFFF" stroke="#008CFF" stroke-linecap="round" stroke-width="2" d="M28.4656767,23.1301029 L51.7224355,45.5178006 L43.8896166,45.5178006 C41.6977394,45.5178006 39.5895832,44.6754421 38.0164114,43.1691918 L22.7978119,28.5805464 L28.4656767,23.1301029 Z"></path><path fill="#DCEFFF" stroke="#008CFF" stroke-linecap="round" stroke-width="2" d="M17.0654644,35.045641 C17.4820734,36.1032992 17.6993157,37.2225938 17.6993157,38.3696525 C17.6993157,43.4342815 13.5753715,47.5178006 8.47050437,47.5178006 C3.36563729,47.5178006 -0.758306962,43.4342815 -0.758306962,38.3696525 C-0.758306962,33.3050235 3.36563729,29.2215043 8.47050437,29.2215043 C9.42281757,29.2215043 10.361264,29.3713334 11.28243,29.6604814 L17.0342063,24.1190167 L23.6234725,17.7725779 L38.0468229,3.87256811 C39.6154212,2.36269268 41.7187069,1.51780063 43.9058232,1.51780063 L51.713117,1.51780063 L17.0654657,35.0456396 Z"></path><path fill="#FFF" stroke="#008CFF" stroke-linecap="round" stroke-width="2" d="M8.24169304,35.0178006 C10.1806966,35.0178006 11.741693,36.5787972 11.741693,38.5178006 C11.741693,40.4568044 10.1806968,42.0178006 8.24169304,42.0178006 C6.30268965,42.0178006 4.74169304,40.4568042 4.74169304,38.5178006 C4.74169304,36.5787974 6.30268979,35.0178006 8.24169304,35.0178006 Z"></path><path fill="#008CFF" d="M23.5,22 C22.671875,22 22,22.671875 22,23.5 C22,24.328125 22.671875,25 23.5,25 C24.328125,25 25,24.328125 25,23.5 C25,22.671875 24.328125,22 23.5,22 Z"></path></g></g></svg>
