<svg xmlns="http://www.w3.org/2000/svg" width="58" height="59" viewBox="0 0 58 59"><g fill="none" fill-rule="evenodd" transform="translate(1 1)"><path fill="#FFF" d="M42.8491,2.3432 L13.1511,32.0412 L15.9791,34.8702 C16.3701,35.2602 17.0031,35.2602 17.3931,34.8702 L45.6781,6.5862 C46.0681,6.1952 46.0681,5.5622 45.6781,5.1712 L42.8491,2.3432 Z"></path><path stroke="#008CFF" stroke-linecap="round" stroke-linejoin="round" stroke-width="2" d="M42.8491,2.3432 L13.1511,32.0412 L15.9791,34.8702 C16.3701,35.2602 17.0031,35.2602 17.3931,34.8702 L45.6781,6.5862 C46.0681,6.1952 46.0681,5.5622 45.6781,5.1712 L42.8491,2.3432 Z"></path><path fill="#DCEFFF" d="M12.9487,10.3309 C14.6887,12.0709 15.5577,14.3509 15.5577,16.6309 C15.5577,18.9109 14.6887,21.1909 12.9487,22.9309 C11.2087,24.6699 8.9287,25.5399 6.6487,25.5399 L13.1507,32.0409 L37.1927,7.9999 L31.5357,2.3429 C26.8097,7.1149 20.6397,11.2439 12.9487,10.3309"></path><path stroke="#008CFF" stroke-linecap="round" stroke-linejoin="round" stroke-width="2" d="M12.9487 10.3309C14.6887 12.0709 15.5577 14.3509 15.5577 16.6309 15.5577 18.9109 14.6887 21.1909 12.9487 22.9309 11.2087 24.6699 8.9287 25.5399 6.6487 25.5399L13.1507 32.0409 37.1927 7.9999 31.5357 2.3429C26.8097 7.1149 20.6397 11.2439 12.9487 10.3309zM20.1069 9.725L20.1069 12.974M25.0297 7.5536L25.0297 11.1576"></path><path fill="#FFF" d="M31.5356,2.3432 L37.1926,8.0002 L42.8486,2.3432 C39.7246,-0.7808 34.6596,-0.7818 31.5356,2.3432"></path><path stroke="#008CFF" stroke-linecap="round" stroke-linejoin="round" stroke-width="2" d="M31.5356,2.3432 L37.1926,8.0002 L42.8486,2.3432 C39.7246,-0.7808 34.6596,-0.7818 31.5356,2.3432 Z"></path><path fill="#FFF" d="M13.1508,54.6688 L42.8488,24.9708 L40.0208,22.1418 C39.6298,21.7518 38.9968,21.7518 38.6068,22.1418 L10.3218,50.4258 C9.9318,50.8168 9.9318,51.4498 10.3218,51.8408 L13.1508,54.6688 Z"></path><path stroke="#008CFF" stroke-linecap="round" stroke-linejoin="round" stroke-width="2" d="M13.1508,54.6688 L42.8488,24.9708 L40.0208,22.1418 C39.6298,21.7518 38.9968,21.7518 38.6068,22.1418 L10.3218,50.4258 C9.9318,50.8168 9.9318,51.4498 10.3218,51.8408 L13.1508,54.6688 Z"></path><path fill="#DCEFFF" d="M43.0512,46.681 C41.3122,44.941 40.4422,42.661 40.4422,40.381 C40.4422,38.101 41.3112,35.821 43.0512,34.081 C44.7912,32.342 47.0712,31.472 49.3512,31.472 L42.8492,24.971 L18.8072,49.012 L24.4642,54.669 C29.1902,49.897 35.3612,45.768 43.0512,46.681"></path><path stroke="#008CFF" stroke-linecap="round" stroke-linejoin="round" stroke-width="2" d="M43.0512 46.681C41.3122 44.941 40.4422 42.661 40.4422 40.381 40.4422 38.101 41.3112 35.821 43.0512 34.081 44.7912 32.342 47.0712 31.472 49.3512 31.472L42.8492 24.971 18.8072 49.012 24.4642 54.669C29.1902 49.897 35.3612 45.768 43.0512 46.681zM35.893 47.287L35.893 44.038M30.9706 49.4584L30.9706 45.8544"></path><path fill="#FFF" d="M24.4643,54.6688 L18.8073,49.0118 L13.1513,54.6688 C16.2753,57.7938 21.3403,57.7938 24.4643,54.6688"></path><path stroke="#008CFF" stroke-linecap="round" stroke-linejoin="round" stroke-width="2" d="M24.4643,54.6688 L18.8073,49.0118 L13.1513,54.6688 C16.2753,57.7938 21.3403,57.7938 24.4643,54.6688 Z"></path><path stroke="#008CFF" stroke-linecap="round" stroke-linejoin="round" stroke-width="2" d="M22.6928 55.9975C24.4118 56.3275 26.1848 56.5065 27.9998 56.5065 43.4638 56.5065 55.9998 43.9705 55.9998 28.5065 55.9998 19.6935 51.9248 11.8355 45.5598 6.7035M33.3071 1.015C31.5881.685 29.8151.506 28.0001.506 12.5361.506.0001 13.042.0001 28.506.0001 37.319 4.0751 45.176 10.4401 50.309"></path></g></svg>
