<svg xmlns="http://www.w3.org/2000/svg" xmlns:xlink="http://www.w3.org/1999/xlink" width="65" height="58" viewBox="0 0 65 58"><defs><path id="icon-principle-write-it-down-a" d="M54,27 C54,41.9117143 41.9117143,54 27,54 C12.0882857,54 0,41.9117143 0,27 C0,12.0882857 12.0882857,0 27,0 C41.9117143,0 54,12.0882857 54,27 Z"></path></defs><g fill="none" fill-rule="evenodd" transform="translate(9 2)"><mask id="icon-principle-write-it-down-b" fill="#fff"><use xlink:href="#icon-principle-write-it-down-a"></use></mask><path stroke="#008CFF" stroke-width="2" d="M55,27 C55,42.463999 42.463999,55 27,55 C11.536001,55 -1,42.463999 -1,27 C-1,11.536001 11.536001,-1 27,-1 C42.463999,-1 55,11.536001 55,27 Z"></path><path stroke="#DCEFFF" stroke-linecap="round" stroke-linejoin="round" stroke-width="2" d="M11.5,2.5 L11.5,50.7818928" mask="url(#icon-principle-write-it-down-b)"></path><path stroke="#DCEFFF" stroke-linecap="square" stroke-linejoin="round" stroke-width="2" d="M11.5 11L60.6315207 11M11.5 18L60.6315207 18M11.5 25L60.6315207 25M11.5 32L60.6315207 32M11.5 39L60.6315207 39M11.5 46L60.6315207 46" mask="url(#icon-principle-write-it-down-b)"></path><g transform="matrix(-1 0 0 1 24 8)"><polyline fill="#FFF" points="9 32 9 32 0 32 0 23"></polyline><polyline stroke="#008CFF" stroke-linecap="round" stroke-linejoin="round" stroke-width="2" points="7 32 7 32 0 32 0 25"></polyline><polygon fill="#008CFF" points="4 32 0 28 0 32"></polygon><path fill="#DCEFFF" d="M28.2772066,11.1526196 L30.461368,8.96845821 C32.5128773,6.91694884 32.5128773,3.59014139 30.461368,1.53863203 C28.4098586,-0.512877342 25.0830512,-0.512877342 23.0315418,1.53863203 L20.8473804,3.72279341 L0,24.5701738 C4.10301874,24.5714872 7.42982618,27.8969813 7.42982618,32 L28.2772066,11.1526196 Z"></path><path stroke="#008CFF" stroke-linecap="round" stroke-linejoin="round" stroke-width="2" d="M28.2772066 11.1526196L30.461368 8.96845821C32.5128773 6.91694884 32.5128773 3.59014139 30.461368 1.53863203 28.4098586-.512877342 25.0830512-.512877342 23.0315418 1.53863203L20.8473804 3.72279341 0 24.5701738C4.10301874 24.5714872 7.42982618 27.8969813 7.42982618 32L28.2772066 11.1526196zM9 23L21 11"></path><path fill="#DCEFFF" d="M21,4 L28,11"></path><path stroke="#008CFF" stroke-linecap="round" stroke-linejoin="round" stroke-width="2" d="M21,4 L28,11"></path></g></g></svg>
